<svg xmlns="http://www.w3.org/2000/svg" width="1200" height="630" viewBox="0 0 1200 630">
  <rect width="1200" height="630" fill="#0a0e14"/>
  <!-- Subtle grid lines -->
  <line x1="0" y1="315" x2="1200" y2="315" stroke="rgba(201,168,76,0.04)" stroke-width="1"/>
  <line x1="600" y1="0" x2="600" y2="630" stroke="rgba(201,168,76,0.04)" stroke-width="1"/>
  <!-- Corner accents -->
  <line x1="80" y1="80" x2="140" y2="80" stroke="rgba(201,168,76,0.3)" stroke-width="1"/>
  <line x1="80" y1="80" x2="80" y2="140" stroke="rgba(201,168,76,0.3)" stroke-width="1"/>
  <line x1="1120" y1="80" x2="1060" y2="80" stroke="rgba(201,168,76,0.3)" stroke-width="1"/>
  <line x1="1120" y1="80" x2="1120" y2="140" stroke="rgba(201,168,76,0.3)" stroke-width="1"/>
  <line x1="80" y1="550" x2="140" y2="550" stroke="rgba(201,168,76,0.3)" stroke-width="1"/>
  <line x1="80" y1="550" x2="80" y2="490" stroke="rgba(201,168,76,0.3)" stroke-width="1"/>
  <line x1="1120" y1="550" x2="1060" y2="550" stroke="rgba(201,168,76,0.3)" stroke-width="1"/>
  <line x1="1120" y1="550" x2="1120" y2="490" stroke="rgba(201,168,76,0.3)" stroke-width="1"/>
  <!-- Ambient glow -->
  <radialGradient id="glow" cx="50%" cy="50%" r="50%">
    <stop offset="0%" stop-color="rgba(201,168,76,0.06)"/>
    <stop offset="100%" stop-color="rgba(201,168,76,0)"/>
  </radialGradient>
  <rect width="1200" height="630" fill="url(#glow)"/>
  <!-- Main content -->
  <text x="600" y="258" font-family="Space Mono, monospace" font-size="88" font-weight="700" fill="#c9a84c" text-anchor="middle" letter-spacing="20">CORVO</text>
  <text x="600" y="320" font-family="Space Mono, monospace" font-size="16" font-weight="400" fill="rgba(232,224,204,0.35)" text-anchor="middle" letter-spacing="6">PORTFOLIO INTELLIGENCE</text>
  <!-- Divider -->
  <line x1="460" y1="352" x2="740" y2="352" stroke="rgba(201,168,76,0.2)" stroke-width="1"/>
  <!-- Tagline -->
  <text x="600" y="396" font-family="system-ui, sans-serif" font-size="20" font-weight="300" fill="rgba(232,224,204,0.55)" text-anchor="middle" letter-spacing="0.5">AI-powered analysis · Sharpe ratio · Monte Carlo · Health score</text>
  <!-- URL -->
  <text x="600" y="520" font-family="Space Mono, monospace" font-size="14" fill="rgba(201,168,76,0.4)" text-anchor="middle" letter-spacing="3">corvo.capital</text>
</svg>
